<?xml version="1.0" encoding="UTF-8" standalone="no"?>
<svg
   viewBox="860.4364454443196 451.58400000000006 826.4566929133857 538.56"
   style="max-height: 500px"
   width="826.4566929133857"
   height="538.56"
   version="1.1"
   id="svg30"
   sodipodi:docname="logo.svg"
   inkscape:version="1.4 (86a8ad7, 2024-10-11)"
   xmlns:inkscape="http://www.inkscape.org/namespaces/inkscape"
   xmlns:sodipodi="http://sodipodi.sourceforge.net/DTD/sodipodi-0.dtd"
   xmlns="http://www.w3.org/2000/svg"
   xmlns:svg="http://www.w3.org/2000/svg">
  <defs
     id="defs30" />
  <sodipodi:namedview
     id="namedview30"
     pagecolor="#ffffff"
     bordercolor="#000000"
     borderopacity="0.25"
     inkscape:showpageshadow="2"
     inkscape:pageopacity="0.0"
     inkscape:pagecheckerboard="0"
     inkscape:deskcolor="#d1d1d1"
     inkscape:zoom="6.8956567"
     inkscape:cx="631.70198"
     inkscape:cy="88.388971"
     inkscape:window-width="2880"
     inkscape:window-height="1531"
     inkscape:window-x="-9"
     inkscape:window-y="-9"
     inkscape:window-maximized="1"
     inkscape:current-layer="svg30" />
  <path
     d="M1959.21 0L2560 0L2560 1.9759C2548.02 8.13147 2543.89 3.73736 2530.63 5.20249L2536.03 5.03854C2527.59 6.44478 2518.93 6.89565 2510.39 7.07987C2487.26 7.5787 2281.53 7.51071 2276.2 5.02768C2275.21 4.5689 2274.22 4.08353 2273.14 3.87383C2260.03 1.32243 2243.73 6.88959 2230.17 6.75325C2222.31 6.67416 2204.74 1.23281 2198.37 5.08355C2193.34 8.12388 2187.27 6.23182 2181.85 5.25721L2182.14 5.40443C2173.68 3.00626 2123.57 3.20759 2112.09 4.36542C2073.28 8.28203 2034.8 6.18804 1995.8 7.28795C1987.65 7.51767 1988.47 4.6117 1983.02 3.79602C1975.86 2.72413 1965.15 7.26393 1959.21 0Z"
     fill="#FEFEFE"
     id="path2" />
  <path
     d="M1178.23 1440L1173.93 1438.41C1182.21 1435.31 1182.53 1436.2 1191.52 1437.84C1193.93 1430.59 1190.05 1428.89 1192.6 1425.02C1197.63 1428.53 1192.76 1432.99 1197.61 1440L1178.23 1440Z"
     fill="#FEFEFE"
     id="path3" />
  <path
     d="m 1176.39,477.498 c 1.02,-1.164 2.08,-2.29 3.19,-3.376 10.25,-10.187 23.13,-11.106 36.85,-10.898 51.16,0.773 54.38,19.503 53.16,63.875 23.78,2.227 35.8,2.632 54.59,18.306 28.57,-29.663 96.24,-29.248 130.36,-9.229 5.21,-5.244 8.74,-7.615 15.59,-10.306 7.92,-32.605 15.51,-43.897 51.07,-37.697 8.32,1.449 16.28,2.2 24.92,4.241 3.54,1.544 7.94,3.587 11.49,4.907 13.22,15.728 10.06,18.233 12.89,36.849 0.01,0.055 4.94,2.867 5.71,3.271 10.07,4.801 17.09,10.188 20.73,21.257 5.42,16.473 1.11,38.983 -5.54,54.587 -6.24,14.628 -20.74,16.512 -34.71,15.614 -0.5,6.367 -1.12,12.982 -1.41,19.342 13.44,2.143 18.91,5.422 29.3,14.248 14.12,-8.412 25.66,-7.351 41.65,-3.332 5.22,1.289 10.38,2.793 15.47,4.507 10.5,4.888 18.5,11.16 22.58,22.376 7.99,21.974 -14.46,103.771 -19.56,130.128 l -1.17,4.208 c -3.98,17.337 -7.66,34.631 -12.83,51.646 6.83,26.98 3.99,51.467 -17.1,71.165 -22.83,14.914 -44.36,13.618 -67.4,-0.793 -23,29.593 -58.75,37.863 -94.56,32.272 -26.29,-4.104 -48.36,-11.323 -52.57,-40.416 -13.42,3.046 -21.7,-0.743 -31.57,0.578 -38.59,5.168 -68.04,12.576 -94.71,-22.228 -19.11,15.252 -32.94,22.778 -58.71,26.415 -19.41,2.74 -72.71,10.732 -90.06,0.079 -10.33,-6.341 -16.4,-25.157 -18.2,-36.956 l -2.59,-2.995 c -4.45,5.55 0.98,9.902 -7.79,14.282 -7.64,14.508 -11.09,26.264 -29.53,28.836 -16.53,2.305 -31.21,-1.445 -47.44,-3.489 -6.78,-0.854 -16.75,1.192 -23.81,1.198 -37.1,1.989 -72.406,-17.788 -77.404,-57.002 -4.189,-32.864 0.108,-50.141 19.422,-76.381 -10.791,-29.254 -9.661,-61.836 22.671,-74.757 -19.904,-57.549 -43.958,-113.882 -63.786,-171.369 -14.784,-42.862 48.194,-56.886 78.406,-53.429 9.381,1.074 16.811,15.723 21.251,23.062 2.923,-12.538 6.02,-26.415 19.21,-32.193 17.81,-7.803 45.55,-11.233 64.41,-6.067 12.37,3.39 17.6,17.011 22.82,27.531 1.3,-12.847 1.91,-22.578 11.71,-32.333 13.77,-13.719 43.56,-9.964 63,-9.534 z"
     id="path4"
     sodipodi:nodetypes="cccccccccccccccccccccccccccccccccccccccccccccccc" />
  <path
     d="M1613.62 943.187C1613.73 940.775 1614.33 938.158 1614.79 935.756L1613.22 934.7C1618.06 933.52 1616.43 930.642 1618.77 927.713C1631.43 911.858 1622.58 886.981 1623.72 869.55C1624.04 864.648 1633.91 826.221 1636.28 822.354C1639.61 820.078 1638.96 820.799 1643.55 820.376C1639.57 837.713 1635.89 855.007 1630.72 872.022C1637.55 899.002 1634.71 923.489 1613.62 943.187Z"
     id="path5" />
  <path
     d="M1546.12 492.414C1549.66 493.958 1554.06 496.001 1557.61 497.321C1570.83 513.049 1567.67 515.554 1570.5 534.17C1570.51 534.225 1575.44 537.037 1576.21 537.441C1557.66 537.747 1565.8 511.964 1544.59 497.154L1543.65 496.506L1546.12 492.414Z"
     id="path6" />
  <path
     d="m 1095.46,913.425 c 2.03,-7.139 3.11,-17.655 6.03,-23.396 l 1.51,-0.014 c 2.23,3.434 2.35,7.985 2.84,12.123 l -0.4879,8.59245 c -4.45,5.55 -1.1221,-1.68545 -9.8921,2.69455 z"
     fill="#fefefe"
     id="path7"
     style="stroke-width:0;stroke-dasharray:none"
     sodipodi:nodetypes="cccccc" />
  <path
     d="M1132.93 506.733C1141.4 505.846 1167.16 504.102 1172.62 508.364C1178.38 512.86 1169.76 557.425 1169.13 565.409C1167 592.687 1162.6 618.331 1159.39 645.333C1157.49 660.139 1156.87 675.495 1154.89 690.336C1154.33 694.579 1153.45 698.681 1151.78 702.618C1144.23 708.714 1119.23 707.448 1109.22 709.908C1106.16 710.658 1100.93 709.491 1099.3 706.159C1090.56 688.314 1080.6 668.793 1073.65 650.208C1066.33 648.583 1057.36 644.07 1051.32 647.135C1049.5 666.83 1048.67 700.924 1043.58 717.915C1033.62 721.151 999.194 729.032 990.973 726.345C988.735 724.893 987.797 723.818 986.856 721.211C979.354 700.443 971.693 679.622 963.812 659.017L936.242 586.53C933.196 578.44 921.719 551.717 924.13 545.21C930.441 538.947 957.841 532.715 966.229 536.517C969.145 540.393 972.623 550.912 974.458 555.845C979.719 569.869 984.86 583.936 989.882 598.046C993.469 608.327 998.956 629.905 1007.77 635.73C1009.68 635.979 1010.58 636.495 1012.15 635.147C1023.41 625.514 1018.24 531.365 1029.53 522.549C1035.29 518.051 1052.52 518.073 1059.87 518.158C1063.14 518.196 1065.49 518.077 1067.84 520.74C1074.56 528.384 1093.6 583.573 1098.31 596.89C1100.78 603.89 1102.6 612.903 1106.49 619.078C1108.1 621.627 1109.37 622.568 1112.16 623.449C1122.09 619.006 1122.7 597.729 1123.74 588.005C1125.39 572.326 1126.93 556.635 1128.35 540.933C1129.34 530.341 1130.02 516.74 1132.93 506.733Z"
     fill="#FEFEFE"
     id="path8" />
  <path
     d="M1051.25 643.711C1051.7 637.79 1051.43 623.313 1058.2 621.979C1064.34 624.974 1065.67 630.929 1068.1 637.254L1073.65 650.208C1066.33 648.583 1057.36 644.07 1051.32 647.135L1051.25 643.711Z"
     id="path9" />
  <path
     d="M1051.25 643.711C1055.03 641.655 1063.37 639.553 1068.1 637.254L1073.65 650.208C1066.33 648.583 1057.36 644.07 1051.32 647.135L1051.25 643.711Z"
     id="path10" />
  <path
     d="M1128.05 796.798L1128.07 795.419C1128.21 780.079 1120.29 743.094 1127.41 733.887C1138.69 726.973 1205.54 727.28 1222.11 730.938C1273.93 742.386 1277.83 819.237 1269.05 861.271C1259.25 908.131 1200.76 915.707 1161.25 913.69C1144.63 912.921 1137.75 918.647 1135.75 897.488C1126.59 886.734 1130.72 884.68 1126.29 876.178C1123.77 871.394 1121.33 866.053 1120.82 860.67C1119.85 850.195 1116.26 825.78 1125.3 818.613C1128.93 813.589 1127.34 804.712 1128.05 796.798Z"
     fill="#FEFEFE"
     id="path11" />
  <path
     d="m 1128.05,796.798 c 1.58,10.298 1.7,21.655 2.54,32.15 1.8,22.631 2.75,45.985 5.16,68.54 -9.16,-10.754 -6.6451,-12.47473 -11.0751,-20.97673 -2.52,-4.784 -4.2165,-10.09937 -4.7265,-15.48237 -0.97,-10.475 -6.3545,-35.19763 2.6855,-42.36463 3.63,-5.024 4.7061,-13.95227 5.4161,-21.86627 z"
     id="path12"
     sodipodi:nodetypes="ccccccc" />
  <path
     d="M1212.86 868.788C1205.97 873.592 1185.21 879 1177.82 873.335C1175.3 864.324 1169.32 773.362 1172.6 767.341C1182.96 762.107 1203.28 764.02 1212.73 771.117C1222.96 778.802 1225.08 790.16 1227 801.929C1230.64 820.324 1231.87 858.399 1212.86 868.788Z"
     id="path14" />
  <path
     d="M1227 801.929C1230.64 820.324 1231.87 858.399 1212.86 868.788C1214.23 864.885 1216.34 863.197 1217.61 858.967C1223.28 840.07 1225.9 821.443 1227 801.929Z"
     id="path15" />
  <path
     d="m 1422.16,821.822 c 0.55,-11.211 2.31,-72.776 6.2,-79.79 6.61,-4.173 32.85,-2.404 38.67,3.054 6.21,12.123 -4.86,58.819 -1.57,78.068 l 0.2,1.24 c 5.4554,-2.37168 9.5194,5.09685 14.7406,6.07782 7.259,1.36384 15.8079,-3.5889 25.0094,-9.54082 1.95,-13.734 4.46,-65.132 9.48,-72.889 6.33,-3.842 22.93,-0.506 29.96,1.165 2.81,0.667 5.9,2.032 7.52,4.545 5.34,8.276 -9.23,126.106 -13.93,142.087 -5.12,17.436 -16.44,34.483 -32.7,43.293 -17.96,9.724 -45.18,10.189 -64.59,4.155 -4.89,-1.523 -9.87,-3.864 -12.06,-8.822 -1.97,-4.46 0.56,-20.825 2.78,-25.16 1.04,-2.032 2.52,-3.391 4.76,-3.954 13.18,-3.318 42.73,15.847 57.58,-6.061 3.96,-5.839 8.13,-20.595 6.86,-27.54 -0.32,-1.754 -1.01,-2.347 -2.14,-3.731 -10.3,-4.418 -43.11,14.548 -67.33,-16.747 -1.57,-0.267 -3.95,-0.537 -4.69,-1.949 -3.37,-6.457 -15.09,-20.395 -14.53,-26.749 10.26,-5.014 2,-3.558 7.28,-7.751 0.15,2.056 0.37,4.107 0.65,6.15 z"
     fill="#fefefe"
     id="path16"
     sodipodi:nodetypes="cccccscccccccsccccccccccc" />
  <path
     d="m 1465.66,824.394 c 13.04,-5.669 23.93,6.77 39.75,-3.463 -6.42,17.791 -33.14,20.08 -39.75,3.463 z"
     id="path17"
     sodipodi:nodetypes="ccc" />
  <path
     d="m 1431.6,851.272 c -1.57,-0.267 -7.8655,7.00398 -8.6055,5.59198 -7.7206,-2.68651 -14.2199,-32.43156 -13.6599,-38.78556 10.26,-5.014 5.0454,0.93758 10.3254,-3.25542 0.15,2.056 1.2401,0.33651 1.5201,2.37951 l 0.9799,4.61949 c 2.19,12.057 2.36,18.469 9.44,29.45 z"
     id="path18"
     sodipodi:nodetypes="ccccccc" />
  <path
     d="M1194.06 640.16C1191.73 623.143 1194.7 590.91 1194.44 572.972C1194.08 548.866 1189.91 517.719 1195.95 494.252C1198.95 491.338 1206.29 490.436 1209.66 492.837C1220.24 493.959 1228.74 493.41 1239.15 496.316C1239.81 507.145 1238.19 556.242 1240.96 561.326C1246.96 562.252 1257.36 559.05 1263.8 558.421C1344.39 550.547 1318.4 633.125 1320.96 682.785C1321.8 699.175 1314.28 698.422 1300.46 698.778C1292.37 698.987 1284.38 700.065 1277.58 694.736C1276.49 687.933 1278.06 681.667 1277.88 675.587C1277.26 654.99 1284.28 617.134 1274.92 599.214C1246.71 584.433 1237.4 600.519 1236.82 626.89C1236.34 648.147 1236.98 670.221 1234.99 691.187C1233.64 701.415 1197.81 699.691 1192.54 692.465C1191.41 681.143 1194.44 654.066 1194.06 640.16Z"
     fill="#FEFEFE"
     id="path19" />
  <path
     d="m 1194.06,640.16 c -5.5204,-10.34613 -5.4508,-48.52491 -5.7108,-66.46291 -0.36,-24.106 -1.6296,-59.1685 4.4104,-82.6355 3,-2.914 13.5304,-0.62559 16.9004,1.77541 -3.88,0.221 -5.37,-0.045 -8.58,2.139 -1.26,1.608 -2.42,3.675 -2.45,5.744 -0.7,43.138 -1.96,86.255 -3.85,129.376 -0.14,3.341 -0.14,6.792 -0.72,10.064 z"
     id="path20"
     sodipodi:nodetypes="cccccccc" />
  <path
     d="M1309.03 820.659C1325.35 817.362 1338.23 816.049 1354.99 816.292C1357.17 816.323 1360.07 814.668 1361.77 813.302C1366.21 805.117 1363.25 791.193 1354.2 788.27C1342.71 784.807 1328.88 787.81 1317.46 790.816C1311.64 792.784 1295.74 798.165 1292.95 789.219C1290.14 780.196 1287.33 762.927 1300.23 759.805C1410.27 733.159 1401.11 774.207 1409.81 864.351C1410.62 872.798 1413.31 889.727 1411.51 898.236C1405.21 905.973 1388.54 905.826 1379.11 905.234C1375.13 902.091 1372.49 899.996 1368.91 896.415C1360.23 904.836 1351.66 907.224 1339.87 909.111C1312.72 913.455 1293.31 903.461 1285.89 876.163L1283.71 875.237C1280.05 865.193 1277.37 850.106 1279.87 839.728L1287.17 836.943C1289.67 834.356 1292.07 827.868 1293.61 824.284C1297.66 821.803 1304.28 820.377 1309.03 820.659Z"
     fill="#FEFEFE"
     id="path21" />
  <path
     d="m 1285.89,876.163 -4.5728,-0.78098 c -6.7779,-9.2464 -6.195,-25.71108 -3.695,-36.08908 l 9.5478,-2.34994 c 2.5,-2.587 4.61,-10.5977 6.15,-14.1817 4.05,-2.481 10.96,-2.3843 15.71,-2.1023 -22.93,15.566 -25.98,28.333 -23.14,55.504 z"
     id="path22"
     sodipodi:nodetypes="ccccccc" />
  <path
     d="M1346.14 839.497C1365.79 837.894 1373.02 846.188 1364.82 866.263C1361.53 874.304 1353.46 877.985 1345.41 880.435C1317.11 879.38 1315.95 846.41 1346.14 839.497Z"
     id="path23" />
  <path
     d="M995.804 755.337C1013.21 753.816 1038.72 753.888 1053.05 764.763C1063.19 772.462 1066.06 783.261 1067.57 795.466C1069.21 808.642 1071.07 902.682 1064.46 909.752C1059.17 915.424 1041.52 912.718 1034.41 912.376C1031.49 909.333 1027.68 904.194 1024.95 900.74C1005.33 914.043 983.32 912.9 962.288 903.706C942.386 886.221 938.401 853.752 954.585 832.002C968.72 813.005 1000.55 820.216 1020.47 819.587C1029.13 819.313 1029.88 805.435 1028.19 798.811C1018.44 776.675 980.434 796.899 964.544 791.022C958.099 788.639 958.932 766.26 963.509 761.674C968.758 757.361 988.376 756.212 995.804 755.337Z"
     fill="#FEFEFE"
     id="path24" />
  <path
     d="M1000.29 841.205C1005.05 841.09 1014.33 840.54 1018.29 842.738C1037.08 853.175 1025.97 874.424 1010.24 879.839C999.491 880.629 989.261 879.641 984.435 868.244C982.388 863.422 982.52 857.951 984.798 853.233C988.348 845.861 993.286 843.606 1000.29 841.205Z"
     id="path25" />
  <path
     d="M1394.12 552.48C1395.35 552.394 1396.59 552.33 1397.82 552.29C1411.58 551.853 1430.4 554.155 1440.59 564.287C1446.49 570.16 1450.59 578.37 1452.33 586.48C1455.85 606.288 1455.31 620.68 1456.09 641.461C1456.53 653.085 1461.37 693.155 1456.13 704.007C1453.78 708.871 1433.67 707.443 1426.74 707.275C1421.05 703.094 1420.06 702.141 1415.58 696.571C1395.61 712.237 1360.94 713.821 1343.4 693.886C1342.21 691.961 1341.03 690.021 1339.99 688.006C1333.9 676.165 1332.42 660.691 1336.49 647.988C1352.18 599.056 1393.53 623.88 1409.74 614.356C1412.21 612.908 1413.61 610.583 1414.28 607.851C1415.39 603.287 1414.79 595.826 1412.24 591.807C1401.63 575.083 1359.45 595.949 1349.88 593.603C1345.02 589.529 1345.92 584.119 1344.74 578.495C1339.39 552.997 1376.75 553.483 1394.12 552.48Z"
     fill="#FEFEFE"
     id="path26" />
  <path
     d="M1391.91 639.325C1405.91 638.649 1423.76 639.487 1415.93 660.679C1412.49 670.012 1406.73 675.065 1397.52 678.772C1386.61 680.233 1384.2 679.957 1376.35 672.165C1371.09 654.797 1373.44 645.138 1391.91 639.325Z"
     id="path27" />
  <path
     d="M1489.15 613.123C1489.6 607.874 1490.77 599.407 1489.66 594.554C1483.37 587.423 1470.92 594.757 1469.46 584.27C1468.34 576.29 1468.61 563.073 1474.08 556.754C1481.95 552.078 1493.97 561.781 1496.65 550.161C1499.18 539.223 1494.27 510.494 1513.9 515.947C1520.5 517.781 1535.79 518.259 1540.43 523.158C1542.49 530.457 1536.06 555.416 1541.59 562.979C1549.67 567.221 1569.06 561.493 1570.09 571.851C1572.69 616.516 1552.78 590.475 1533.11 600.484C1528.13 603.022 1526.48 645.912 1525.46 653.777C1520 695.794 1553.78 668.793 1563.68 688.582C1564.9 691.016 1562.91 708.556 1561.36 712.965C1557.49 718.137 1546 716.547 1540.29 716.062C1496.74 712.364 1484.03 702.894 1484.07 659.187C1486.34 645.428 1487.69 627.275 1489.15 613.123Z"
     fill="#FEFEFE"
     id="path28" />
  <path
     d="m 1599.73,686.051 c 10.34,-0.717 31.19,2.263 37.49,11.703 0.67,7.608 -25.2,138.404 -29.6,149.944 -2.94,4.537 -9.06,4.12 -13.68,3.885 -16.47,-0.837 -21.33,-1.856 -19.11,-19.296 5.76,-45.202 10.7,-90.441 16.45,-135.628 0.66,-5.202 4.45,-8.008 8.45,-10.608 z"
     fill="#fefefe"
     id="path29"
     sodipodi:nodetypes="ccccccc" />
  <path
     d="M1576.68 877.234C1583.11 877.604 1589.73 877.348 1595.5 880.503C1611.43 889.209 1606.05 904.215 1599.06 916.679C1595.55 918.971 1593.27 920.18 1589.57 922.068C1553.69 929.762 1550.93 882.477 1576.68 877.234Z"
     fill="#FEFEFE"
     id="path30" />
</svg>
