<?xml version="1.0" encoding="utf-8" ?><svg xmlns="http://www.w3.org/2000/svg" xmlns:xlink="http://www.w3.org/1999/xlink" width="2560" height="1440" viewBox="0 0 2560 1440"><path fill="#FEFEFE" d="M0 0L1959.21 0L2560 0L2560 1.9759L2560 1440L1197.61 1440L1178.23 1440L0 1440L0 0Z"/><path fill="#FEFEFE" d="M1959.21 0L2560 0L2560 1.9759C2548.02 8.13147 2543.89 3.73736 2530.63 5.20249L2536.03 5.03854C2527.59 6.44478 2518.93 6.89565 2510.39 7.07987C2487.26 7.5787 2281.53 7.51071 2276.2 5.02768C2275.21 4.5689 2274.22 4.08353 2273.14 3.87383C2260.03 1.32243 2243.73 6.88959 2230.17 6.75325C2222.31 6.67416 2204.74 1.23281 2198.37 5.08355C2193.34 8.12388 2187.27 6.23182 2181.85 5.25721L2182.14 5.40443C2173.68 3.00626 2123.57 3.20759 2112.09 4.36542C2073.28 8.28203 2034.8 6.18804 1995.8 7.28795C1987.65 7.51767 1988.47 4.6117 1983.02 3.79602C1975.86 2.72413 1965.15 7.26393 1959.21 0Z"/><path fill="#FEFEFE" d="M1178.23 1440L1173.93 1438.41C1182.21 1435.31 1182.53 1436.2 1191.52 1437.84C1193.93 1430.59 1190.05 1428.89 1192.6 1425.02C1197.63 1428.53 1192.76 1432.99 1197.61 1440L1178.23 1440Z"/><path d="M1176.39 477.498C1177.41 476.334 1178.47 475.208 1179.58 474.122C1189.83 463.935 1202.71 463.016 1216.43 463.224C1267.59 463.997 1270.81 482.727 1269.59 527.099C1293.37 529.326 1305.39 529.731 1324.18 545.405C1352.75 515.742 1420.42 516.157 1454.54 536.176C1459.75 530.932 1463.28 528.561 1470.13 525.87C1478.05 493.265 1485.64 481.973 1521.2 488.173C1529.52 489.622 1537.48 490.373 1546.12 492.414C1549.66 493.958 1554.06 496.001 1557.61 497.321C1570.83 513.049 1567.67 515.554 1570.5 534.17C1570.51 534.225 1575.44 537.037 1576.21 537.441C1586.28 542.242 1593.3 547.629 1596.94 558.698C1602.36 575.171 1598.05 597.681 1591.4 613.285C1585.16 627.913 1570.66 629.797 1556.69 628.899C1556.19 635.266 1555.57 641.881 1555.28 648.241C1568.72 650.384 1574.19 653.663 1584.58 662.489C1598.7 654.077 1610.24 655.138 1626.23 659.157C1631.45 660.446 1636.61 661.95 1641.7 663.664C1652.2 668.552 1660.2 674.824 1664.28 686.04C1672.27 708.014 1649.82 789.811 1644.72 816.168L1643.55 820.376C1639.57 837.713 1635.89 855.007 1630.72 872.022C1637.55 899.002 1634.71 923.489 1613.62 943.187C1590.79 958.101 1569.26 956.805 1546.22 942.394C1523.22 971.987 1487.47 980.257 1451.66 974.666C1425.37 970.562 1403.3 963.343 1399.09 934.25C1385.67 937.296 1377.39 933.507 1367.52 934.828C1328.93 939.996 1299.48 947.404 1272.81 912.6C1253.7 927.852 1239.87 935.378 1214.1 939.015C1194.69 941.755 1141.39 949.747 1124.04 939.094C1113.71 932.753 1107.64 913.937 1105.84 902.138L1103.25 899.143C1098.8 904.693 1104.23 909.045 1095.46 913.425C1087.82 927.933 1084.37 939.689 1065.93 942.261C1049.4 944.566 1034.72 940.816 1018.49 938.772C1011.71 937.918 1001.74 939.964 994.68 939.97C957.58 941.959 922.274 922.182 917.276 882.968C913.087 850.104 917.384 832.827 936.698 806.587C925.907 777.333 927.037 744.751 959.369 731.83C939.465 674.281 915.411 617.948 895.583 560.461C880.799 517.599 943.777 503.575 973.989 507.032C983.37 508.106 990.8 522.755 995.24 530.094C998.163 517.556 1001.26 503.679 1014.45 497.901C1032.26 490.098 1060 486.668 1078.86 491.834C1091.23 495.224 1096.46 508.845 1101.68 519.365C1102.98 506.518 1103.59 496.787 1113.39 487.032C1127.16 473.313 1156.95 477.068 1176.39 477.498Z"/><path d="M1613.62 943.187C1613.73 940.775 1614.33 938.158 1614.79 935.756L1613.22 934.7C1618.06 933.52 1616.43 930.642 1618.77 927.713C1631.43 911.858 1622.58 886.981 1623.72 869.55C1624.04 864.648 1633.91 826.221 1636.28 822.354C1639.61 820.078 1638.96 820.799 1643.55 820.376C1639.57 837.713 1635.89 855.007 1630.72 872.022C1637.55 899.002 1634.71 923.489 1613.62 943.187Z"/><path d="M1546.12 492.414C1549.66 493.958 1554.06 496.001 1557.61 497.321C1570.83 513.049 1567.67 515.554 1570.5 534.17C1570.51 534.225 1575.44 537.037 1576.21 537.441C1557.66 537.747 1565.8 511.964 1544.59 497.154L1543.65 496.506L1546.12 492.414Z"/><path fill="#FEFEFE" d="M1095.46 913.425C1097.49 906.286 1098.57 895.77 1101.49 890.029L1103 890.015C1105.23 893.449 1105.35 898 1105.84 902.138L1103.25 899.143C1098.8 904.693 1104.23 909.045 1095.46 913.425Z"/><path fill="#FEFEFE" d="M1132.93 506.733C1141.4 505.846 1167.16 504.102 1172.62 508.364C1178.38 512.86 1169.76 557.425 1169.13 565.409C1167 592.687 1162.6 618.331 1159.39 645.333C1157.49 660.139 1156.87 675.495 1154.89 690.336C1154.33 694.579 1153.45 698.681 1151.78 702.618C1144.23 708.714 1119.23 707.448 1109.22 709.908C1106.16 710.658 1100.93 709.491 1099.3 706.159C1090.56 688.314 1080.6 668.793 1073.65 650.208C1066.33 648.583 1057.36 644.07 1051.32 647.135C1049.5 666.83 1048.67 700.924 1043.58 717.915C1033.62 721.151 999.194 729.032 990.973 726.345C988.735 724.893 987.797 723.818 986.856 721.211C979.354 700.443 971.693 679.622 963.812 659.017L936.242 586.53C933.196 578.44 921.719 551.717 924.13 545.21C930.441 538.947 957.841 532.715 966.229 536.517C969.145 540.393 972.623 550.912 974.458 555.845C979.719 569.869 984.86 583.936 989.882 598.046C993.469 608.327 998.956 629.905 1007.77 635.73C1009.68 635.979 1010.58 636.495 1012.15 635.147C1023.41 625.514 1018.24 531.365 1029.53 522.549C1035.29 518.051 1052.52 518.073 1059.87 518.158C1063.14 518.196 1065.49 518.077 1067.84 520.74C1074.56 528.384 1093.6 583.573 1098.31 596.89C1100.78 603.89 1102.6 612.903 1106.49 619.078C1108.1 621.627 1109.37 622.568 1112.16 623.449C1122.09 619.006 1122.7 597.729 1123.74 588.005C1125.39 572.326 1126.93 556.635 1128.35 540.933C1129.34 530.341 1130.02 516.74 1132.93 506.733Z"/><path d="M1051.25 643.711C1051.7 637.79 1051.43 623.313 1058.2 621.979C1064.34 624.974 1065.67 630.929 1068.1 637.254L1073.65 650.208C1066.33 648.583 1057.36 644.07 1051.32 647.135L1051.25 643.711Z"/><path d="M1051.25 643.711C1055.03 641.655 1063.37 639.553 1068.1 637.254L1073.65 650.208C1066.33 648.583 1057.36 644.07 1051.32 647.135L1051.25 643.711Z"/><path fill="#FEFEFE" d="M1128.05 796.798L1128.07 795.419C1128.21 780.079 1120.29 743.094 1127.41 733.887C1138.69 726.973 1205.54 727.28 1222.11 730.938C1273.93 742.386 1277.83 819.237 1269.05 861.271C1259.25 908.131 1200.76 915.707 1161.25 913.69C1144.63 912.921 1137.75 918.647 1135.75 897.488C1126.59 886.734 1130.72 884.68 1126.29 876.178C1123.77 871.394 1121.33 866.053 1120.82 860.67C1119.85 850.195 1116.26 825.78 1125.3 818.613C1128.93 813.589 1127.34 804.712 1128.05 796.798Z"/><path d="M1128.05 796.798C1129.63 807.096 1129.75 818.453 1130.59 828.948C1132.39 851.579 1133.34 874.933 1135.75 897.488C1126.59 886.734 1130.72 884.68 1126.29 876.178C1123.77 871.394 1121.33 866.053 1120.82 860.67C1119.85 850.195 1116.26 825.78 1125.3 818.613C1128.93 813.589 1127.34 804.712 1128.05 796.798Z"/><path d="M1126.29 876.178C1123.77 871.394 1121.33 866.053 1120.82 860.67C1119.85 850.195 1116.26 825.78 1125.3 818.613C1125.58 828.847 1124.98 837.806 1124.97 847.918C1124.96 857.381 1126.99 866.54 1126.29 876.178Z"/><path d="M1212.86 868.788C1205.97 873.592 1185.21 879 1177.82 873.335C1175.3 864.324 1169.32 773.362 1172.6 767.341C1182.96 762.107 1203.28 764.02 1212.73 771.117C1222.96 778.802 1225.08 790.16 1227 801.929C1230.64 820.324 1231.87 858.399 1212.86 868.788Z"/><path d="M1227 801.929C1230.64 820.324 1231.87 858.399 1212.86 868.788C1214.23 864.885 1216.34 863.197 1217.61 858.967C1223.28 840.07 1225.9 821.443 1227 801.929Z"/><path fill="#FEFEFE" d="M1422.16 821.822C1422.71 810.611 1424.47 749.046 1428.36 742.032C1434.97 737.859 1461.21 739.628 1467.03 745.086C1473.24 757.209 1462.17 803.905 1465.46 823.154L1465.66 824.394C1478.7 818.725 1489.59 831.164 1505.41 820.931C1507.36 807.197 1509.87 755.799 1514.89 748.042C1521.22 744.2 1537.82 747.536 1544.85 749.207C1547.66 749.874 1550.75 751.239 1552.37 753.752C1557.71 762.028 1543.14 879.858 1538.44 895.839C1533.32 913.275 1522 930.322 1505.74 939.132C1487.78 948.856 1460.56 949.321 1441.15 943.287C1436.26 941.764 1431.28 939.423 1429.09 934.465C1427.12 930.005 1429.65 913.64 1431.87 909.305C1432.91 907.273 1434.39 905.914 1436.63 905.351C1449.81 902.033 1479.36 921.198 1494.21 899.29C1498.17 893.451 1502.34 878.695 1501.07 871.75C1500.75 869.996 1500.06 869.403 1498.93 868.019C1488.63 863.601 1455.82 882.567 1431.6 851.272C1430.03 851.005 1427.65 850.735 1426.91 849.323C1423.54 842.866 1411.82 828.928 1412.38 822.574C1422.64 817.56 1414.38 819.016 1419.66 814.823C1419.81 816.879 1420.03 818.93 1420.31 820.973L1422.16 821.822Z"/><path d="M1465.66 824.394C1478.7 818.725 1489.59 831.164 1505.41 820.931C1498.99 838.722 1472.27 841.011 1465.66 824.394Z"/><path d="M1431.6 851.272C1430.03 851.005 1427.65 850.735 1426.91 849.323C1423.54 842.866 1411.82 828.928 1412.38 822.574C1422.64 817.56 1414.38 819.016 1419.66 814.823C1419.81 816.879 1420.03 818.93 1420.31 820.973L1422.16 821.822C1424.35 833.879 1424.52 840.291 1431.6 851.272Z"/><path fill="#FEFEFE" d="M1194.06 640.16C1191.73 623.143 1194.7 590.91 1194.44 572.972C1194.08 548.866 1189.91 517.719 1195.95 494.252C1198.95 491.338 1206.29 490.436 1209.66 492.837C1220.24 493.959 1228.74 493.41 1239.15 496.316C1239.81 507.145 1238.19 556.242 1240.96 561.326C1246.96 562.252 1257.36 559.05 1263.8 558.421C1344.39 550.547 1318.4 633.125 1320.96 682.785C1321.8 699.175 1314.28 698.422 1300.46 698.778C1292.37 698.987 1284.38 700.065 1277.58 694.736C1276.49 687.933 1278.06 681.667 1277.88 675.587C1277.26 654.99 1284.28 617.134 1274.92 599.214C1246.71 584.433 1237.4 600.519 1236.82 626.89C1236.34 648.147 1236.98 670.221 1234.99 691.187C1233.64 701.415 1197.81 699.691 1192.54 692.465C1191.41 681.143 1194.44 654.066 1194.06 640.16Z"/><path d="M1194.06 640.16C1191.73 623.143 1194.7 590.91 1194.44 572.972C1194.08 548.866 1189.91 517.719 1195.95 494.252C1198.95 491.338 1206.29 490.436 1209.66 492.837C1205.78 493.058 1204.29 492.792 1201.08 494.976C1199.82 496.584 1198.66 498.651 1198.63 500.72C1197.93 543.858 1196.67 586.975 1194.78 630.096C1194.64 633.437 1194.64 636.888 1194.06 640.16Z"/><path fill="#FEFEFE" d="M1309.03 820.659C1325.35 817.362 1338.23 816.049 1354.99 816.292C1357.17 816.323 1360.07 814.668 1361.77 813.302C1366.21 805.117 1363.25 791.193 1354.2 788.27C1342.71 784.807 1328.88 787.81 1317.46 790.816C1311.64 792.784 1295.74 798.165 1292.95 789.219C1290.14 780.196 1287.33 762.927 1300.23 759.805C1410.27 733.159 1401.11 774.207 1409.81 864.351C1410.62 872.798 1413.31 889.727 1411.51 898.236C1405.21 905.973 1388.54 905.826 1379.11 905.234C1375.13 902.091 1372.49 899.996 1368.91 896.415C1360.23 904.836 1351.66 907.224 1339.87 909.111C1312.72 913.455 1293.31 903.461 1285.89 876.163L1283.71 875.237C1280.05 865.193 1277.37 850.106 1279.87 839.728L1287.17 836.943C1289.67 834.356 1292.07 827.868 1293.61 824.284C1297.66 821.803 1304.28 820.377 1309.03 820.659Z"/><path d="M1285.89 876.163L1283.71 875.237C1280.05 865.193 1277.37 850.106 1279.87 839.728L1287.17 836.943C1289.67 834.356 1292.07 827.868 1293.61 824.284C1297.66 821.803 1304.28 820.377 1309.03 820.659C1286.1 836.225 1283.05 848.992 1285.89 876.163Z"/><path d="M1346.14 839.497C1365.79 837.894 1373.02 846.188 1364.82 866.263C1361.53 874.304 1353.46 877.985 1345.41 880.435C1317.11 879.38 1315.95 846.41 1346.14 839.497Z"/><path fill="#FEFEFE" d="M995.804 755.337C1013.21 753.816 1038.72 753.888 1053.05 764.763C1063.19 772.462 1066.06 783.261 1067.57 795.466C1069.21 808.642 1071.07 902.682 1064.46 909.752C1059.17 915.424 1041.52 912.718 1034.41 912.376C1031.49 909.333 1027.68 904.194 1024.95 900.74C1005.33 914.043 983.32 912.9 962.288 903.706C942.386 886.221 938.401 853.752 954.585 832.002C968.72 813.005 1000.55 820.216 1020.47 819.587C1029.13 819.313 1029.88 805.435 1028.19 798.811C1018.44 776.675 980.434 796.899 964.544 791.022C958.099 788.639 958.932 766.26 963.509 761.674C968.758 757.361 988.376 756.212 995.804 755.337Z"/><path d="M1000.29 841.205C1005.05 841.09 1014.33 840.54 1018.29 842.738C1037.08 853.175 1025.97 874.424 1010.24 879.839C999.491 880.629 989.261 879.641 984.435 868.244C982.388 863.422 982.52 857.951 984.798 853.233C988.348 845.861 993.286 843.606 1000.29 841.205Z"/><path fill="#FEFEFE" d="M1394.12 552.48C1395.35 552.394 1396.59 552.33 1397.82 552.29C1411.58 551.853 1430.4 554.155 1440.59 564.287C1446.49 570.16 1450.59 578.37 1452.33 586.48C1455.85 606.288 1455.31 620.68 1456.09 641.461C1456.53 653.085 1461.37 693.155 1456.13 704.007C1453.78 708.871 1433.67 707.443 1426.74 707.275C1421.05 703.094 1420.06 702.141 1415.58 696.571C1395.61 712.237 1360.94 713.821 1343.4 693.886C1342.21 691.961 1341.03 690.021 1339.99 688.006C1333.9 676.165 1332.42 660.691 1336.49 647.988C1352.18 599.056 1393.53 623.88 1409.74 614.356C1412.21 612.908 1413.61 610.583 1414.28 607.851C1415.39 603.287 1414.79 595.826 1412.24 591.807C1401.63 575.083 1359.45 595.949 1349.88 593.603C1345.02 589.529 1345.92 584.119 1344.74 578.495C1339.39 552.997 1376.75 553.483 1394.12 552.48Z"/><path d="M1391.91 639.325C1405.91 638.649 1423.76 639.487 1415.93 660.679C1412.49 670.012 1406.73 675.065 1397.52 678.772C1386.61 680.233 1384.2 679.957 1376.35 672.165C1371.09 654.797 1373.44 645.138 1391.91 639.325Z"/><path fill="#FEFEFE" d="M1489.15 613.123C1489.6 607.874 1490.77 599.407 1489.66 594.554C1483.37 587.423 1470.92 594.757 1469.46 584.27C1468.34 576.29 1468.61 563.073 1474.08 556.754C1481.95 552.078 1493.97 561.781 1496.65 550.161C1499.18 539.223 1494.27 510.494 1513.9 515.947C1520.5 517.781 1535.79 518.259 1540.43 523.158C1542.49 530.457 1536.06 555.416 1541.59 562.979C1549.67 567.221 1569.06 561.493 1570.09 571.851C1572.69 616.516 1552.78 590.475 1533.11 600.484C1528.13 603.022 1526.48 645.912 1525.46 653.777C1520 695.794 1553.78 668.793 1563.68 688.582C1564.9 691.016 1562.91 708.556 1561.36 712.965C1557.49 718.137 1546 716.547 1540.29 716.062C1496.74 712.364 1484.03 702.894 1484.07 659.187C1486.34 645.428 1487.69 627.275 1489.15 613.123Z"/><path fill="#FEFEFE" d="M1599.73 686.051C1610.07 685.334 1630.92 688.314 1637.22 697.754C1637.89 705.362 1612.02 836.158 1607.62 847.698C1604.68 852.235 1598.56 851.818 1593.94 851.583C1577.47 850.746 1572.61 849.727 1574.83 832.287C1580.59 787.085 1585.53 741.846 1591.28 696.659C1591.94 691.457 1595.73 688.651 1599.73 686.051Z"/><path fill="#FEFEFE" d="M1576.68 877.234C1583.11 877.604 1589.73 877.348 1595.5 880.503C1611.43 889.209 1606.05 904.215 1599.06 916.679C1595.55 918.971 1593.27 920.18 1589.57 922.068C1553.69 929.762 1550.93 882.477 1576.68 877.234Z"/></svg>